<svg version="1.2" baseProfile="tiny-ps" xmlns="http://www.w3.org/2000/svg" viewBox="0 0 20 20" width="20" height="20">
	<title>New Project</title>
	<defs>
		<clipPath clipPathUnits="userSpaceOnUse" id="cp1">
			<path d="M18.47 3C18.7 2.99 18.94 3.04 19.15 3.14C19.36 3.24 19.54 3.39 19.69 3.58C19.83 3.76 19.93 3.98 19.98 4.21C20.02 4.44 20.01 4.67 19.95 4.9L18.12 11.42C18.01 11.79 17.84 12.14 17.62 12.46C17.4 12.78 17.13 13.06 16.82 13.29C16.51 13.52 16.17 13.7 15.8 13.82C15.43 13.94 15.05 14 14.66 14L6.93 14C5.99 14 5.17 13.37 4.94 12.48L2.26 2L1.02 2C0.46 2 0 1.55 0 1C0 0.45 0.46 0 1.02 0L3.1 0C3.57 0 3.98 0.31 4.09 0.76L4.65 3L18.47 3ZM7 15.5C7.53 15.5 8.04 15.71 8.41 16.09C8.79 16.46 9 16.97 9 17.5C9 18.03 8.79 18.54 8.41 18.91C8.04 19.29 7.53 19.5 7 19.5C6.47 19.5 5.96 19.29 5.59 18.91C5.21 18.54 5 18.03 5 17.5C5 16.97 5.21 16.46 5.59 16.09C5.96 15.71 6.47 15.5 7 15.5ZM15 15.5C15.53 15.5 16.04 15.71 16.41 16.09C16.79 16.46 17 16.97 17 17.5C17 18.03 16.79 18.54 16.41 18.91C16.04 19.29 15.53 19.5 15 19.5C14.47 19.5 13.96 19.29 13.59 18.91C13.21 18.54 13 18.03 13 17.5C13 16.97 13.21 16.46 13.59 16.09C13.96 15.71 14.47 15.5 15 15.5Z" />
		</clipPath>
	</defs>
	<style>
		tspan { white-space:pre }
		.shp0 { fill: none } 
		.shp1 { fill: #9fa6b0 } 
		.shp2 { fill: #6c727c } 
	</style>
	<g id="Layer">
		<g id="Layer">
			<path id="Layer" class="shp0" d="M-2 -2L22 -2L22 22L-2 22L-2 -2Z" />
			<path id="a" fillRule="evenodd" class="shp1" d="M18.47 3C18.7 2.99 18.94 3.04 19.15 3.14C19.36 3.24 19.54 3.39 19.69 3.58C19.83 3.76 19.93 3.98 19.98 4.21C20.02 4.44 20.01 4.67 19.95 4.9L18.12 11.42C18.01 11.79 17.84 12.14 17.62 12.46C17.4 12.78 17.13 13.06 16.82 13.29C16.51 13.52 16.17 13.7 15.8 13.82C15.43 13.94 15.05 14 14.66 14L6.93 14C5.99 14 5.17 13.37 4.94 12.48L2.26 2L1.02 2C0.46 2 0 1.55 0 1C0 0.45 0.46 0 1.02 0L3.1 0C3.57 0 3.98 0.31 4.09 0.76L4.65 3L18.47 3ZM7 15.5C7.53 15.5 8.04 15.71 8.41 16.09C8.79 16.46 9 16.97 9 17.5C9 18.03 8.79 18.54 8.41 18.91C8.04 19.29 7.53 19.5 7 19.5C6.47 19.5 5.96 19.29 5.59 18.91C5.21 18.54 5 18.03 5 17.5C5 16.97 5.21 16.46 5.59 16.09C5.96 15.71 6.47 15.5 7 15.5ZM15 15.5C15.53 15.5 16.04 15.71 16.41 16.09C16.79 16.46 17 16.97 17 17.5C17 18.03 16.79 18.54 16.41 18.91C16.04 19.29 15.53 19.5 15 19.5C14.47 19.5 13.96 19.29 13.59 18.91C13.21 18.54 13 18.03 13 17.5C13 16.97 13.21 16.46 13.59 16.09C13.96 15.71 14.47 15.5 15 15.5Z" />
			<g id="Clip-Path" clip-path="url(#cp1)">
				<g id="Layer">
					<path id="Layer" class="shp2" d="M-1 -1L21 -1L21 21L-1 21L-1 -1Z" />
				</g>
			</g>
		</g>
	</g>
</svg>