<svg version="1.2" baseProfile="tiny-ps" xmlns="http://www.w3.org/2000/svg" viewBox="0 0 20 16" width="20" height="16">
	<title>New Project</title>
	<defs>
		<clipPath clipPathUnits="userSpaceOnUse" id="cp1">
			<path d="M10 10L20 6L20 14C20 14.26 19.95 14.52 19.85 14.77C19.75 15.01 19.6 15.23 19.41 15.41C19.23 15.6 19.01 15.75 18.77 15.85C18.52 15.95 18.26 16 18 16L2 16C1.74 16 1.48 15.95 1.23 15.85C0.99 15.75 0.77 15.6 0.59 15.41C0.4 15.23 0.25 15.01 0.15 14.77C0.05 14.52 0 14.26 0 14L0 6L10 10ZM10 8L0 4L0 2C0 0.9 0.9 0 2 0L18 0C18.26 0 18.52 0.05 18.77 0.15C19.01 0.25 19.23 0.4 19.41 0.59C19.6 0.77 19.75 0.99 19.85 1.23C19.95 1.48 20 1.74 20 2L20 4L10 8Z" />
		</clipPath>
	</defs>
	<style>
		tspan { white-space:pre }
		.shp0 { fill: none } 
		.shp1 { fill: #9fa6b0 } 
		.shp2 { fill: #6c727c } 
	</style>
	<g id="Layer">
		<g id="Layer">
			<path id="Layer" class="shp0" d="M-2 -4L22 -4L22 20L-2 20L-2 -4Z" />
			<path id="c" fillRule="evenodd" class="shp1" d="M10 10L20 6L20 14C20 14.26 19.95 14.52 19.85 14.77C19.75 15.01 19.6 15.23 19.41 15.41C19.23 15.6 19.01 15.75 18.77 15.85C18.52 15.95 18.26 16 18 16L2 16C1.74 16 1.48 15.95 1.23 15.85C0.99 15.75 0.77 15.6 0.59 15.41C0.4 15.23 0.25 15.01 0.15 14.77C0.05 14.52 0 14.26 0 14L0 6L10 10ZM10 8L0 4L0 2C0 0.9 0.9 0 2 0L18 0C18.26 0 18.52 0.05 18.77 0.15C19.01 0.25 19.23 0.4 19.41 0.59C19.6 0.77 19.75 0.99 19.85 1.23C19.95 1.48 20 1.74 20 2L20 4L10 8Z" />
			<g id="Clip-Path" clip-path="url(#cp1)">
				<g id="Layer">
					<path id="Layer" class="shp2" d="M-1 -3L21 -3L21 19L-1 19L-1 -3Z" />
				</g>
			</g>
		</g>
	</g>
</svg>