<svg version="1.2" baseProfile="tiny-ps" xmlns="http://www.w3.org/2000/svg" viewBox="0 0 14 20" width="12" height="17">
	<title>New Project</title>
	<defs>
		<clipPath clipPathUnits="userSpaceOnUse" id="cp1">
			<path d="M11 0C11.39 0 11.78 0.08 12.15 0.23C12.51 0.38 12.84 0.6 13.12 0.88C13.4 1.16 13.62 1.49 13.77 1.85C13.92 2.22 14 2.61 14 3L14 17C14 17.39 13.92 17.78 13.77 18.15C13.62 18.51 13.4 18.84 13.12 19.12C12.84 19.4 12.51 19.62 12.15 19.77C11.78 19.92 11.39 20 11 20L3 20C2.61 20 2.22 19.92 1.85 19.77C1.49 19.62 1.16 19.4 0.88 19.12C0.6 18.84 0.38 18.51 0.23 18.15C0.08 17.78 0 17.39 0 17L0 3C0 2.61 0.08 2.22 0.23 1.85C0.38 1.49 0.6 1.16 0.88 0.88C1.16 0.6 1.49 0.38 1.85 0.23C2.22 0.08 2.61 0 3 0L11 0ZM4 2L3 2C2.87 2 2.74 2.03 2.62 2.08C2.5 2.13 2.39 2.2 2.29 2.29C2.2 2.39 2.13 2.5 2.08 2.62C2.03 2.74 2 2.87 2 3L2 17C2 17.13 2.03 17.26 2.08 17.38C2.13 17.5 2.2 17.61 2.29 17.71C2.39 17.8 2.5 17.87 2.62 17.92C2.74 17.97 2.87 18 3 18L11 18C11.13 18 11.26 17.97 11.38 17.92C11.5 17.87 11.61 17.8 11.71 17.71C11.8 17.61 11.87 17.5 11.92 17.38C11.97 17.26 12 17.13 12 17L12 3C12 2.87 11.97 2.74 11.92 2.62C11.87 2.5 11.8 2.39 11.71 2.29C11.61 2.2 11.5 2.13 11.38 2.08C11.26 2.03 11.13 2 11 2L10 2C10 2.26 9.95 2.52 9.85 2.77C9.75 3.01 9.6 3.23 9.41 3.41C9.23 3.6 9.01 3.75 8.77 3.85C8.52 3.95 8.26 4 8 4L6 4C5.74 4 5.48 3.95 5.23 3.85C4.99 3.75 4.77 3.6 4.59 3.41C4.4 3.23 4.25 3.01 4.15 2.77C4.05 2.52 4 2.26 4 2Z" />
		</clipPath>
	</defs>
	<style>
		tspan { white-space:pre }
		.shp0 { fill: none } 
		.shp1 { fill: #9fa6b0 } 
		.shp2 { fill: #6c727c } 
	</style>
	<g id="Layer">
		<g id="Layer">
			<path id="Layer" class="shp0" d="M-5 -2L19 -2L19 22L-5 22L-5 -2Z" />
			<path id="g" fillRule="evenodd" class="shp1" d="M11 0C11.39 0 11.78 0.08 12.15 0.23C12.51 0.38 12.84 0.6 13.12 0.88C13.4 1.16 13.62 1.49 13.77 1.85C13.92 2.22 14 2.61 14 3L14 17C14 17.39 13.92 17.78 13.77 18.15C13.62 18.51 13.4 18.84 13.12 19.12C12.84 19.4 12.51 19.62 12.15 19.77C11.78 19.92 11.39 20 11 20L3 20C2.61 20 2.22 19.92 1.85 19.77C1.49 19.62 1.16 19.4 0.88 19.12C0.6 18.84 0.38 18.51 0.23 18.15C0.08 17.78 0 17.39 0 17L0 3C0 2.61 0.08 2.22 0.23 1.85C0.38 1.49 0.6 1.16 0.88 0.88C1.16 0.6 1.49 0.38 1.85 0.23C2.22 0.08 2.61 0 3 0L11 0ZM4 2L3 2C2.87 2 2.74 2.03 2.62 2.08C2.5 2.13 2.39 2.2 2.29 2.29C2.2 2.39 2.13 2.5 2.08 2.62C2.03 2.74 2 2.87 2 3L2 17C2 17.13 2.03 17.26 2.08 17.38C2.13 17.5 2.2 17.61 2.29 17.71C2.39 17.8 2.5 17.87 2.62 17.92C2.74 17.97 2.87 18 3 18L11 18C11.13 18 11.26 17.97 11.38 17.92C11.5 17.87 11.61 17.8 11.71 17.71C11.8 17.61 11.87 17.5 11.92 17.38C11.97 17.26 12 17.13 12 17L12 3C12 2.87 11.97 2.74 11.92 2.62C11.87 2.5 11.8 2.39 11.71 2.29C11.61 2.2 11.5 2.13 11.38 2.08C11.26 2.03 11.13 2 11 2L10 2C10 2.26 9.95 2.52 9.85 2.77C9.75 3.01 9.6 3.23 9.41 3.41C9.23 3.6 9.01 3.75 8.77 3.85C8.52 3.95 8.26 4 8 4L6 4C5.74 4 5.48 3.95 5.23 3.85C4.99 3.75 4.77 3.6 4.59 3.41C4.4 3.23 4.25 3.01 4.15 2.77C4.05 2.52 4 2.26 4 2Z" />
			<g id="Clip-Path" clip-path="url(#cp1)">
				<g id="Layer">
					<path id="Layer" class="shp2" d="M-4 -1L18 -1L18 21L-4 21L-4 -1Z" />
				</g>
			</g>
		</g>
	</g>
</svg>