<svg version="1.2" baseProfile="tiny-ps" xmlns="http://www.w3.org/2000/svg" viewBox="0 0 18 20" width="18" height="20">
	<title>New Project</title>
	<defs>
		<clipPath clipPathUnits="userSpaceOnUse" id="cp1">
			<path d="M16 13L16 9C16 8.25 15.88 7.51 15.64 6.8C15.41 6.08 15.06 5.42 14.61 4.82C14.17 4.22 13.62 3.69 13.01 3.26C12.4 2.83 11.72 2.5 11 2.29L10.98 2.28L11 2C11 1.74 10.95 1.48 10.85 1.23C10.75 0.99 10.6 0.77 10.41 0.59C10.23 0.4 10.01 0.25 9.77 0.15C9.52 0.05 9.26 0 9 0C8.71 0 8.43 0.06 8.17 0.18C7.91 0.3 7.68 0.47 7.49 0.69C7.3 0.9 7.16 1.16 7.08 1.43C7 1.71 6.98 2 7.02 2.28L7 2.29C6.28 2.5 5.6 2.83 4.99 3.26C4.38 3.69 3.83 4.22 3.39 4.82C2.94 5.42 2.59 6.08 2.36 6.8C2.12 7.51 2 8.25 2 9L2 13C2 13.26 1.95 13.52 1.85 13.77C1.75 14.01 1.6 14.23 1.41 14.41C1.23 14.6 1.01 14.75 0.77 14.85C0.52 14.95 0.26 15 0 15L0 16.24C0.18 16.31 0.35 16.38 0.53 16.45C0.71 16.52 0.89 16.59 1.07 16.65C1.25 16.71 1.43 16.78 1.61 16.83C1.79 16.89 1.98 16.95 2.16 17C3.72 17.47 5.34 17.77 7.01 17.91L7 18C7 18.53 7.21 19.04 7.59 19.41C7.96 19.79 8.47 20 9 20C9.53 20 10.04 19.79 10.41 19.41C10.79 19.04 11 18.53 11 18L11 17.91C12.66 17.77 14.3 17.47 15.85 17L16 16.96C16.68 16.75 17.35 16.52 18 16.24L18 15C17.74 15 17.48 14.95 17.23 14.85C16.99 14.75 16.77 14.6 16.59 14.41C16.4 14.23 16.25 14.01 16.15 13.77C16.05 13.52 16 13.26 16 13Z" />
		</clipPath>
	</defs>
	<style>
		tspan { white-space:pre }
		.shp0 { fill: none } 
		.shp1 { fill: #9fa6b0 } 
		.shp2 { fill: #6c727c } 
	</style>
	<g id="Layer">
		<g id="Layer">
			<path id="Layer" class="shp0" d="M-3 -2L21 -2L21 22L-3 22L-3 -2Z" />
			<path id="e" fillRule="evenodd" class="shp1" d="M16 13L16 9C16 8.25 15.88 7.51 15.64 6.8C15.41 6.08 15.06 5.42 14.61 4.82C14.17 4.22 13.62 3.69 13.01 3.26C12.4 2.83 11.72 2.5 11 2.29L10.98 2.28L11 2C11 1.74 10.95 1.48 10.85 1.23C10.75 0.99 10.6 0.77 10.41 0.59C10.23 0.4 10.01 0.25 9.77 0.15C9.52 0.05 9.26 0 9 0C8.71 0 8.43 0.06 8.17 0.18C7.91 0.3 7.68 0.47 7.49 0.69C7.3 0.9 7.16 1.16 7.08 1.43C7 1.71 6.98 2 7.02 2.28L7 2.29C6.28 2.5 5.6 2.83 4.99 3.26C4.38 3.69 3.83 4.22 3.39 4.82C2.94 5.42 2.59 6.08 2.36 6.8C2.12 7.51 2 8.25 2 9L2 13C2 13.26 1.95 13.52 1.85 13.77C1.75 14.01 1.6 14.23 1.41 14.41C1.23 14.6 1.01 14.75 0.77 14.85C0.52 14.95 0.26 15 0 15L0 16.24C0.18 16.31 0.35 16.38 0.53 16.45C0.71 16.52 0.89 16.59 1.07 16.65C1.25 16.71 1.43 16.78 1.61 16.83C1.79 16.89 1.98 16.95 2.16 17C3.72 17.47 5.34 17.77 7.01 17.91L7 18C7 18.53 7.21 19.04 7.59 19.41C7.96 19.79 8.47 20 9 20C9.53 20 10.04 19.79 10.41 19.41C10.79 19.04 11 18.53 11 18L11 17.91C12.66 17.77 14.3 17.47 15.85 17L16 16.96C16.68 16.75 17.35 16.52 18 16.24L18 15C17.74 15 17.48 14.95 17.23 14.85C16.99 14.75 16.77 14.6 16.59 14.41C16.4 14.23 16.25 14.01 16.15 13.77C16.05 13.52 16 13.26 16 13Z" />
			<g id="Clip-Path" clip-path="url(#cp1)">
				<g id="Layer">
					<path id="Layer" class="shp2" d="M-2 -1L20 -1L20 21L-2 21L-2 -1Z" />
				</g>
			</g>
		</g>
	</g>
</svg>